<?xml version="1.0" standalone="no"?>
<!DOCTYPE svg PUBLIC "-//W3C//DTD SVG 20010904//EN"
 "http://www.w3.org/TR/2001/REC-SVG-20010904/DTD/svg10.dtd">
<svg version="1.0" xmlns="http://www.w3.org/2000/svg"
 width="1272.000000pt" height="1296.000000pt" viewBox="0 0 1272.000000 1296.000000"
 preserveAspectRatio="xMidYMid meet">

<g transform="translate(0.000000,1296.000000) scale(0.100000,-0.100000)"
fill="#000000" stroke="none">
<path d="M2520 12843 c-134 -20 -244 -78 -540 -284 -225 -156 -514 -323 -915
-529 -473 -243 -645 -350 -780 -485 -200 -199 -210 -396 -41 -749 29 -61 112
-214 185 -341 293 -511 367 -715 426 -1171 58 -446 121 -574 311 -629 53 -15
94 -52 94 -84 0 -9 7 -27 16 -40 l17 -24 11 27 c13 32 108 104 195 148 46 23
78 33 109 32 42 -1 43 0 36 25 -4 14 -8 37 -8 51 -1 27 8 29 78 16 l38 -7 -34
30 c-30 26 -108 151 -94 151 3 0 28 -25 57 -55 68 -72 83 -72 74 0 -6 47 -5
56 10 61 24 10 49 -8 53 -37 10 -63 42 -63 101 -1 32 33 51 64 64 105 10 31
22 55 28 52 5 -4 9 -74 9 -158 0 -231 24 -457 81 -777 75 -414 209 -921 346
-1308 l54 -153 -117 -296 c-102 -258 -155 -372 -428 -916 -391 -778 -436 -889
-436 -1077 0 -155 48 -288 236 -660 273 -539 538 -876 1222 -1558 346 -344
410 -404 396 -367 -12 31 48 10 99 -35 20 -17 57 -64 83 -103 70 -107 80 -117
130 -117 53 0 76 -20 67 -60 -7 -36 10 -60 42 -60 29 0 47 22 38 46 -7 18 -6
18 17 1 89 -64 116 -78 142 -73 25 5 27 4 18 -19 -5 -14 -17 -39 -26 -56 -26
-51 -15 -59 80 -59 121 0 156 -16 156 -72 0 -39 -16 -43 -64 -17 -28 14 -50
20 -62 15 -21 -8 -18 -11 86 -95 41 -33 43 -40 25 -85 -13 -31 28 -3 71 49 34
42 41 71 12 48 -7 -5 -22 -13 -33 -17 -14 -4 -10 3 13 24 26 24 41 30 65 28
l32 -3 -2 -69 -1 -68 54 7 c63 8 75 1 105 -58 11 -21 40 -58 65 -81 48 -47 53
-68 24 -106 -27 -35 -26 -68 5 -82 32 -14 51 1 65 52 13 48 1 104 -35 165 -37
65 -28 82 27 54 46 -23 158 -97 158 -104 0 -2 -19 -3 -42 -2 -66 3 -63 -23 14
-98 92 -89 208 -152 208 -112 0 6 -20 37 -45 67 -25 30 -45 61 -45 67 0 9 21
13 74 13 97 0 110 -16 80 -94 -5 -13 1 -15 32 -13 l38 2 8 -55 c10 -64 23 -77
87 -85 95 -12 110 -16 137 -38 24 -19 41 -22 109 -22 70 0 86 -4 127 -28 55
-32 68 -51 61 -90 -5 -24 -2 -27 21 -27 16 0 38 11 53 26 32 32 82 54 121 54
60 0 98 -52 162 -220 18 -47 36 -89 41 -94 5 -6 19 2 33 17 28 31 65 47 104
47 48 0 58 15 23 36 -40 24 -42 58 -4 72 16 6 49 13 76 16 59 7 104 29 112 56
8 26 18 25 30 -2 17 -40 60 -52 178 -52 85 0 111 4 124 16 14 15 14 17 -4 26
-10 6 -59 18 -109 27 -119 21 -146 32 -142 59 5 35 47 42 102 16 97 -44 213
-48 369 -13 102 22 145 67 177 186 17 64 57 97 115 97 60 0 91 -14 110 -50 11
-20 23 -30 39 -30 29 0 37 17 29 64 -5 35 -5 36 27 36 45 0 78 39 140 163 69
140 79 150 181 171 87 18 110 34 102 65 -11 43 30 89 182 204 41 31 74 64 80
81 8 25 6 31 -18 52 -34 29 -63 32 -52 7 4 -10 9 -35 12 -56 6 -36 4 -39 -18
-35 -13 2 -31 16 -42 36 -18 31 -18 33 0 65 18 32 50 54 313 225 69 45 168
113 220 152 52 38 102 70 110 70 12 0 14 -10 12 -48 -3 -38 0 -51 17 -66 25
-23 37 -16 22 12 -18 33 -13 42 22 42 31 0 72 -22 177 -97 16 -12 6 6 -27 48
-49 62 -66 99 -44 99 10 0 105 -71 161 -119 44 -38 48 -38 42 -1 -3 21 3 38
22 61 30 35 31 39 13 63 -13 18 -42 23 -68 12 -10 -5 -27 2 -47 18 -36 31 -55
32 -117 5 -53 -24 -90 -19 -100 12 -12 38 13 52 82 45 52 -5 62 -4 57 8 -10
25 22 69 117 161 110 106 226 196 291 225 34 15 47 26 51 47 8 41 60 114 145
204 74 79 116 110 138 102 6 -2 14 10 18 28 6 30 8 31 41 25 32 -6 35 -5 41
21 12 49 54 124 149 268 121 182 217 351 380 666 73 141 147 278 165 304 l33
48 -7 161 c-15 362 -34 537 -62 573 -17 23 -18 4 -3 -50 5 -20 7 -42 4 -48
-25 -39 -111 147 -119 257 -4 45 -6 49 -33 54 -36 7 -92 88 -129 187 -22 59
-24 76 -14 88 16 19 44 19 87 -2 60 -28 70 -91 12 -76 -14 4 -19 0 -19 -15 0
-30 22 -122 30 -122 13 0 50 126 50 168 0 59 -41 102 -97 102 -66 0 -116 20
-160 64 -39 40 -63 89 -49 103 4 4 31 -18 61 -47 84 -83 65 -17 -28 93 -22 26
-37 50 -35 52 3 3 26 -2 52 -11 57 -20 71 -11 33 22 -38 33 -61 30 -118 -12
-27 -20 -49 -31 -49 -25 0 7 16 43 35 81 53 105 44 138 -16 56 -42 -60 -57
-64 -75 -21 -19 45 -18 69 1 61 8 -3 22 -9 31 -13 14 -5 15 -1 8 28 -15 59 -7
115 27 181 53 105 50 246 -6 256 -33 7 -45 -25 -39 -98 7 -75 -7 -135 -55
-240 l-30 -65 0 70 c0 90 15 206 28 214 12 8 28 110 36 231 9 155 25 250 46
271 43 43 129 7 129 -53 0 -27 43 -88 62 -88 7 0 8 27 3 78 -9 103 24 340 46
326 5 -3 9 -32 9 -65 0 -32 4 -59 8 -59 5 0 28 39 52 86 41 78 45 93 47 164 1
63 7 92 34 151 41 94 72 144 104 165 14 9 58 19 105 23 44 4 85 12 92 19 9 9
15 70 19 205 4 151 9 201 23 232 35 80 97 124 178 126 24 0 52 4 62 8 18 7 17
10 -12 31 -18 13 -32 27 -32 30 0 3 16 14 35 23 19 9 35 22 35 30 0 7 -18 36
-40 66 -22 29 -40 58 -40 63 0 6 23 32 50 59 28 27 60 70 70 95 18 40 22 44
40 34 12 -6 30 -8 40 -5 22 7 46 43 36 53 -4 3 -37 6 -75 6 -77 1 -101 14
-101 56 0 21 -11 38 -42 64 -40 34 -41 36 -16 36 71 0 203 -37 268 -76 33 -20
153 -15 176 7 14 14 12 20 -20 58 -39 46 -43 60 -24 79 20 20 40 14 69 -20
l28 -33 1 28 c0 44 -48 87 -99 87 -67 0 -103 -62 -81 -140 6 -19 10 -36 10
-37 0 -10 -29 2 -75 32 -52 33 -72 65 -40 65 28 0 87 64 120 130 39 77 85 130
113 130 28 0 72 38 88 76 20 48 17 89 -8 134 -18 31 -21 43 -12 67 9 25 14 28
52 27 23 0 42 2 42 5 0 3 -14 26 -31 51 -26 38 -30 51 -25 83 5 32 1 49 -25
94 -21 36 -28 58 -21 65 14 14 51 -38 102 -142 l42 -85 -5 135 c-4 147 -10
170 -38 170 -44 0 -33 74 22 142 19 23 20 31 10 58 -9 27 -8 31 4 26 8 -3 22
-9 30 -12 18 -7 35 32 35 80 0 35 21 62 39 52 17 -11 39 35 59 121 11 45 27
94 37 109 16 25 19 26 84 20 49 -5 71 -3 85 7 26 19 13 51 -28 71 -55 26 -69
18 -45 -26 14 -25 6 -33 -20 -18 -33 17 -27 65 19 140 22 36 40 68 40 71 0 3
-13 4 -30 1 -25 -4 -31 0 -40 23 -6 15 -7 44 -4 64 8 41 46 122 66 138 11 10
13 4 10 -27 -7 -67 60 -246 96 -258 19 -6 15 71 -13 208 -28 138 -34 284 -12
314 13 17 14 17 30 1 25 -25 21 -62 -8 -81 l-26 -17 23 -11 c21 -11 23 -18 23
-101 0 -73 4 -98 23 -132 31 -59 41 -61 48 -11 5 30 17 52 41 75 l33 32 -37 7
c-56 10 -75 22 -71 47 4 31 58 28 131 -7 64 -30 93 -28 127 9 l22 23 -59 -5
c-53 -5 -61 -3 -87 22 -22 20 -36 26 -57 21 -33 -6 -39 6 -39 75 0 58 11 62
66 24 44 -30 67 -31 102 -7 48 33 63 34 103 7 45 -29 52 -30 69 -10 10 12 8
22 -13 53 -38 56 -119 139 -252 259 l-120 108 -3 -45 c-2 -25 -1 -78 3 -119 6
-59 12 -79 31 -97 27 -28 37 -29 59 -8 10 11 14 26 11 40 -3 13 -9 36 -12 52
l-5 27 20 -23 c26 -30 43 -92 39 -140 -3 -34 -6 -37 -35 -40 -18 -2 -49 5 -69
14 -56 27 -72 74 -83 240 -12 187 -40 254 -147 354 -115 107 -251 188 -672
399 -522 263 -777 405 -1057 591 -189 126 -278 178 -361 214 -309 129 -571 94
-1064 -140 -219 -104 -330 -146 -495 -189 -417 -108 -888 -134 -1792 -98
l-163 6 0 -1429 c1 -1459 11 -2295 30 -2464 6 -52 17 -104 25 -116 16 -25 92
-52 229 -84 229 -53 507 -200 716 -381 247 -212 516 -695 697 -1249 178 -547
208 -892 102 -1158 -68 -170 -159 -288 -296 -378 -149 -100 -299 -144 -429
-126 -38 5 -71 8 -73 6 -2 -2 6 -12 19 -22 l23 -19 -34 -25 c-49 -37 -82 -52
-215 -98 -364 -126 -834 -196 -1150 -170 -275 22 -453 71 -727 201 -181 86
-354 149 -406 149 -117 0 -311 122 -448 282 -209 245 -238 628 -87 1158 124
436 411 1002 658 1297 273 327 527 473 1019 584 l97 21 0 2020 0 2019 -57 -5
c-32 -3 -193 -10 -358 -16 -165 -5 -356 -12 -425 -15 -156 -6 -551 10 -730 31
-180 20 -402 65 -534 108 -116 38 -208 83 -356 170 -216 128 -509 208 -755
205 -55 -1 -111 -3 -125 -6z m9659 -1817 c39 -44 69 -81 67 -83 -1 -2 -18 4
-36 13 -30 15 -35 15 -67 0 -19 -9 -39 -14 -44 -11 -12 8 -12 168 0 163 5 -1
41 -39 80 -82z m-499 -600 c0 -8 -7 -16 -15 -19 -32 -13 -74 -87 -80 -145 -11
-102 -17 -132 -25 -132 -11 0 -40 87 -40 120 0 56 30 128 65 159 38 33 95 43
95 17z m-220 -339 c0 -47 -75 -177 -102 -177 -28 0 9 113 58 177 27 36 44 35
44 0z m-117 -280 c11 -34 -12 -102 -50 -147 -38 -45 -46 -38 -41 33 8 85 34
149 61 145 12 -2 24 -15 30 -31z m-7596 -6 c68 -31 83 -86 37 -141 -30 -35
-92 -70 -126 -70 -76 0 -144 113 -108 180 27 50 123 64 197 31z m4201 -1 c41
-39 16 -147 -43 -186 -40 -26 -109 -14 -151 27 -97 94 -47 178 107 179 52 0
70 -4 87 -20z m-5982 -172 c-18 -48 -52 -96 -60 -87 -8 8 19 95 39 126 27 41
42 14 21 -39z m54 -124 c11 -28 13 -84 4 -108 -15 -40 -64 5 -64 59 0 31 24
75 41 75 5 0 14 -12 19 -26z m9217 -269 c4 -189 -2 -243 -24 -221 -10 10 -17
386 -8 434 7 36 7 37 17 12 6 -14 13 -115 15 -225z m-9316 108 c19 -55 19
-314 0 -337 -14 -16 -15 -16 -25 1 -6 10 -12 82 -14 161 -6 197 9 263 39 175z
m-101 -120 c0 -42 -14 -76 -41 -102 -25 -23 -59 -28 -59 -8 0 14 57 136 72
155 15 18 28 -2 28 -45z m-350 -453 c0 -19 -95 -106 -128 -118 -44 -15 -54 8
-21 45 51 55 149 103 149 73z m8510 -160 c0 -34 -9 -60 -21 -60 -10 0 -12 83
-3 93 12 12 24 -4 24 -33z m700 -10 c12 -12 19 -24 17 -28 -2 -4 -7 -16 -11
-26 -6 -18 -8 -18 -31 4 -24 23 -32 50 -18 63 11 11 22 8 43 -13z m-742 -354
c5 -25 -6 -66 -18 -66 -6 0 -10 21 -10 46 0 32 4 44 13 42 6 -3 14 -13 15 -22z
m-88 -447 c12 -21 4 -79 -10 -79 -11 0 -20 53 -13 79 7 26 9 26 23 0z m110 -9
c6 -11 8 -36 4 -55 -5 -27 -3 -36 10 -41 20 -7 22 -91 5 -162 -17 -67 -29 -74
-29 -16 -1 27 -7 85 -15 129 -30 161 -30 165 -7 165 12 0 26 -9 32 -20z m346
-185 c49 -104 49 -138 -1 -191 -31 -32 -37 -35 -51 -23 -45 37 -56 141 -27
256 15 61 17 64 31 47 8 -10 29 -50 48 -89z m-481 15 c19 -38 19 -73 -1 -116
-24 -50 -39 -37 -42 36 -5 106 12 139 43 80z m101 -311 c7 -24 15 -101 19
-171 4 -71 11 -128 16 -128 4 0 24 27 43 59 42 68 57 77 82 49 18 -19 18 -20
-13 -46 -36 -31 -52 -60 -83 -157 -44 -137 -82 -187 -124 -167 -56 25 -60 157
-8 217 38 43 46 95 37 263 -6 112 -5 134 6 130 8 -2 19 -24 25 -49z m-68 -62
c4 -35 -23 -131 -43 -147 -12 -10 -18 -6 -35 22 -25 42 -25 84 0 126 16 27 26
33 48 30 21 -2 28 -9 30 -31z m-898 -5293 c30 -20 47 -25 70 -21 35 7 39 -4
10 -33 -12 -12 -26 -17 -37 -13 -21 7 -93 73 -93 85 0 13 8 10 50 -18z m-1017
-487 c23 -46 17 -75 -23 -121 -58 -66 -206 -103 -341 -87 -62 8 -129 33 -129
49 0 4 31 7 68 7 64 0 72 2 117 37 36 28 51 35 61 27 9 -7 19 -7 36 2 15 7 9
-3 -19 -33 -24 -24 -43 -47 -43 -51 0 -23 134 20 189 61 32 24 33 27 28 74 -4
27 -4 55 0 64 9 25 37 11 56 -29z m-224 -273 c34 -24 11 -34 -86 -34 -89 0
-109 11 -66 34 38 21 122 20 152 0z m-714 -65 c46 -22 60 -49 26 -49 -21 0
-81 46 -81 61 0 13 4 12 55 -12z m230 -69 c3 -5 -12 -18 -34 -30 -66 -33 -94
-22 -49 20 23 21 72 27 83 10z m-231 -76 c9 -3 16 -10 16 -14 0 -15 -48 -20
-77 -9 -26 10 -27 12 -8 19 25 11 49 12 69 4z m320 -13 c26 -29 17 -55 -20
-59 -45 -4 -60 18 -33 52 24 31 31 32 53 7z m-496 -52 c-17 -13 -28 -30 -28
-45 0 -32 -36 -40 -118 -25 -71 13 -102 26 -102 42 0 7 24 8 69 3 67 -6 70 -6
86 20 15 23 24 26 69 26 l51 -1 -27 -20z m419 -100 c19 -16 16 -29 -6 -29 -21
0 -81 46 -81 61 0 10 65 -14 87 -32z m-149 -11 c-5 -16 -41 -22 -74 -14 -38
10 -18 26 32 26 32 0 44 -4 42 -12z m-253 -182 c68 -36 110 -125 63 -134 -10
-2 -23 8 -32 26 -16 31 -46 46 -111 57 -47 8 -65 21 -65 47 0 41 72 43 145 4z"/>
<path d="M9916 6955 c-9 -24 -7 -78 3 -93 11 -18 21 7 21 51 0 41 -14 66 -24
42z"/>
<path d="M12336 10834 c7 -45 0 -57 -61 -101 -17 -12 -27 -25 -23 -28 12 -13
59 5 84 32 20 22 30 25 64 20 l40 -5 -19 26 c-11 15 -36 43 -56 62 l-36 35 7
-41z"/>
<path d="M12410 10641 c0 -53 15 -69 26 -27 8 33 2 69 -13 74 -9 2 -13 -11
-13 -47z"/>
<path d="M11207 8864 c-14 -14 -7 -24 33 -44 46 -23 60 -25 60 -7 0 29 -74 69
-93 51z"/>
<path d="M1561 8634 c-25 -32 -23 -48 6 -52 25 -4 46 20 41 49 -5 33 -23 34
-47 3z"/>
<path d="M11292 8558 c-18 -18 -15 -48 6 -48 24 0 62 28 62 46 0 17 -51 19
-68 2z"/>
<path d="M11097 8484 c-13 -14 6 -24 43 -24 41 0 61 14 34 24 -21 8 -69 8 -77
0z"/>
<path d="M10974 8245 c-15 -23 -15 -27 0 -50 19 -29 52 -35 41 -7 -22 54 11
69 57 25 l30 -28 -7 25 c-19 63 -89 84 -121 35z"/>
<path d="M5930 7903 c-244 -13 -427 -73 -571 -187 -131 -103 -144 -241 -44
-451 75 -156 174 -255 365 -367 197 -116 220 -174 220 -558 l0 -215 -194 -173
c-221 -197 -466 -443 -514 -516 -34 -53 -42 -96 -17 -96 14 0 99 42 328 164
208 111 314 141 480 134 173 -7 308 -59 602 -232 71 -42 137 -76 147 -76 25 0
24 50 -2 100 -37 73 -110 154 -365 405 -289 285 -275 263 -296 467 -12 122 0
276 27 370 19 61 34 77 232 247 289 248 355 355 356 576 0 84 -4 109 -23 153
-42 95 -179 190 -326 227 -58 14 -274 36 -325 33 -14 -1 -50 -3 -80 -5z m-93
-90 c56 -26 60 -38 26 -85 -66 -91 -161 -129 -237 -93 -32 15 -96 86 -96 107
0 17 44 46 102 66 99 34 140 35 205 5z"/>
<path d="M9917 6470 c10 -136 36 -231 77 -274 29 -32 26 -46 -22 -100 -42 -47
-74 -118 -66 -143 29 -80 126 -68 168 21 21 45 20 53 -8 60 -25 6 -42 38 -31
56 4 7 19 8 37 4 28 -5 30 -4 23 12 -36 85 -39 104 -39 226 -1 69 -4 130 -8
134 -4 4 -15 -10 -24 -32 -14 -32 -15 -48 -6 -89 21 -105 -24 -53 -62 72 -41
131 -46 138 -39 53z m103 -455 c15 -18 10 -45 -12 -59 -33 -20 -69 20 -54 60
7 18 50 18 66 -1z"/>
<path d="M10389 3924 c-11 -26 -17 -49 -15 -52 9 -9 66 60 66 79 0 36 -31 19
-51 -27z"/>
<path d="M10292 3768 c-17 -17 -15 -45 3 -52 19 -7 71 37 61 52 -9 16 -49 15
-64 0z"/>
<path d="M10044 3216 c-13 -55 14 -94 44 -64 19 19 14 42 -12 68 l-25 23 -7
-27z"/>
<path d="M9880 3017 c0 -15 79 -175 89 -182 39 -23 15 53 -39 125 -45 60 -50
66 -50 57z"/>
<path d="M9560 2711 c-27 -39 -49 -93 -43 -108 7 -19 50 -16 61 4 6 10 6 27 0
45 -13 37 -6 44 32 28 17 -7 33 -11 35 -9 6 6 -45 69 -55 69 -5 0 -18 -13 -30
-29z"/>
<path d="M9283 2381 c-50 -36 -109 -105 -122 -142 -14 -42 8 -38 38 6 29 43
43 44 71 4 28 -38 63 -37 68 3 3 21 -3 30 -27 43 -17 8 -31 20 -31 25 0 5 16
22 35 37 65 52 36 73 -32 24z"/>
<path d="M9075 2228 c-45 -25 -145 -111 -145 -124 0 -10 12 -14 40 -14 36 0
40 3 40 24 0 17 15 37 50 66 60 51 69 79 15 48z"/>
<path d="M8514 1804 c-32 -25 -110 -78 -173 -117 -115 -72 -201 -143 -201
-166 0 -16 43 -31 91 -31 46 0 49 11 12 38 -35 26 -28 34 58 64 78 29 201 112
263 178 82 87 48 110 -50 34z"/>
<path d="M8596 1699 c-49 -54 -58 -79 -28 -79 25 0 42 19 42 47 0 34 23 28 60
-14 l33 -37 -23 -15 c-69 -48 -85 -82 -48 -105 13 -8 22 -6 37 8 29 27 70 117
78 171 6 44 5 45 -21 45 -15 0 -29 7 -32 15 -12 30 -51 16 -98 -36z"/>
<path d="M8395 1593 c-41 -21 -75 -53 -75 -70 0 -27 84 13 129 61 l24 26 -24
0 c-13 -1 -37 -8 -54 -17z"/>
<path d="M8462 1499 c-29 -16 -52 -34 -52 -39 0 -16 73 -12 98 6 22 15 30 48
14 58 -5 3 -32 -8 -60 -25z"/>
<path d="M8725 1470 c-10 -22 -15 -44 -11 -48 11 -10 56 45 56 69 0 33 -26 21
-45 -21z"/>
<path d="M4301 1003 c28 -34 132 -93 163 -92 l31 0 -24 17 c-42 30 -184 93
-170 75z"/>
<path d="M4860 522 c0 -8 26 -34 93 -91 42 -38 32 -11 -19 47 -41 46 -74 66
-74 44z"/>
<path d="M5240 435 c0 -14 34 -36 78 -49 32 -10 29 17 -4 43 -31 25 -74 28
-74 6z"/>
</g>
</svg>
